<svg width="24" height="24" viewBox="0 0 24 24" fill="none" xmlns="http://www.w3.org/2000/svg">
<g clip-path="url(#clip0_30_54)">
<mask id="mask0_30_54" style="mask-type:luminance" maskUnits="userSpaceOnUse" x="0" y="0" width="24" height="24">
<path d="M24 0H0V24H24V0Z" fill="white"/>
</mask>
<g mask="url(#mask0_30_54)">
<path d="M13.9711 0.265858C13.767 0.0889015 13.4063 0 12.889 0H11.111C10.5945 0 10.233 0.0889015 10.0289 0.265011C9.82487 0.442814 9.73682 0.748465 9.76306 1.18366L9.8164 3.31052L9.91885 7.36527L10.0484 12.5114C10.0755 12.9474 10.1915 13.2531 10.3955 13.43C10.5996 13.6078 10.9332 13.6951 11.3963 13.6951H12.6028C13.0651 13.6951 13.3987 13.607 13.6036 13.43C13.8077 13.2531 13.9237 12.9474 13.9507 12.5114L14.0803 7.36527L14.1827 3.31052L14.2361 1.18366C14.2632 0.748465 14.1751 0.441967 13.9702 0.265011L13.9711 0.265858Z" fill="#D81A30"/>
<path d="M20.1874 5.97166C18.6769 4.51453 16.6737 3.62975 14.1827 3.31055L14.0803 7.3653C15.0142 7.63031 15.7863 8.08836 16.3892 8.74793C17.3959 9.85031 17.8997 11.4632 17.8997 13.5867C17.8997 15.7102 17.3959 17.3714 16.3892 18.4873C15.385 19.5998 13.922 20.1569 11.9991 20.1612C10.0763 20.1569 8.61327 19.5998 7.60911 18.4873C6.6024 17.3714 6.09863 15.7381 6.09863 13.5867C6.09863 11.4353 6.6024 9.85031 7.60911 8.74793C8.21194 8.08836 8.98411 7.63031 9.918 7.3653L9.81556 3.31055C7.32462 3.6289 5.32138 4.51453 3.8109 5.97166C1.87793 7.8369 0.911865 10.3752 0.911865 13.5876C0.911865 16.7999 1.87877 19.3391 3.8109 21.2034C5.74048 23.0644 8.46933 23.9966 11.9983 24.0009C15.5264 23.9975 18.2561 23.0653 20.1857 21.2034C22.1187 19.3391 23.0847 16.8007 23.0847 13.5876C23.0847 10.3744 22.1178 7.8369 20.1857 5.97166H20.1874Z" fill="#F9F9F9"/>
</g>
</g>
<defs>
<clipPath id="clip0_30_54">
<rect width="24" height="24" fill="white"/>
</clipPath>
</defs>
</svg>
