<svg width="68" height="68" viewBox="0 0 68 68" fill="none" xmlns="http://www.w3.org/2000/svg">
<g clip-path="url(#clip0_29_4)">
<path d="M35.9711 9.26586C35.767 9.0889 35.4063 9 34.889 9H33.111C32.5945 9 32.233 9.0889 32.0289 9.26501C31.8249 9.44281 31.7368 9.74847 31.7631 10.1837L31.8164 12.3105L31.9189 16.3653L32.0484 21.5114C32.0755 21.9474 32.1915 22.2531 32.3955 22.43C32.5996 22.6078 32.9332 22.6951 33.3963 22.6951H34.6028C35.0651 22.6951 35.3987 22.607 35.6036 22.43C35.8077 22.2531 35.9237 21.9474 35.9507 21.5114L36.0803 16.3653L36.1827 12.3105L36.2361 10.1837C36.2632 9.74847 36.1751 9.44197 35.9702 9.26501L35.9711 9.26586Z" fill="#D81A30"/>
<path d="M42.1874 14.9717C40.6769 13.5145 38.6737 12.6297 36.1827 12.3105L36.0803 16.3653C37.0142 16.6303 37.7863 17.0884 38.3892 17.7479C39.3959 18.8503 39.8997 20.4632 39.8997 22.5867C39.8997 24.7102 39.3959 26.3714 38.3892 27.4873C37.385 28.5998 35.922 29.1569 33.9991 29.1612C32.0763 29.1569 30.6133 28.5998 29.6091 27.4873C28.6024 26.3714 28.0986 24.7381 28.0986 22.5867C28.0986 20.4353 28.6024 18.8503 29.6091 17.7479C30.2119 17.0884 30.9841 16.6303 31.918 16.3653L31.8156 12.3105C29.3246 12.6289 27.3214 13.5145 25.8109 14.9717C23.8779 16.8369 22.9119 19.3752 22.9119 22.5876C22.9119 25.7999 23.8788 28.3391 25.8109 30.2034C27.7405 32.0644 30.4693 32.9966 33.9983 33.0009C37.5264 32.9975 40.2561 32.0653 42.1857 30.2034C44.1187 28.3391 45.0847 25.8007 45.0847 22.5876C45.0847 19.3744 44.1178 16.8369 42.1857 14.9717H42.1874Z" fill="#59585A"/>
</g>
<path d="M34 67.3333V37.3333" stroke="#F9F9F9" stroke-linecap="round" stroke-linejoin="round"/>
<path d="M44.5667 1.36666C45.3969 0.902473 46.3322 0.658752 47.2833 0.658752C48.2345 0.658752 49.1698 0.902473 50 1.36666L64 9.23333C64.9915 9.794 65.8164 10.6079 66.3903 11.5918C66.9642 12.5756 67.2667 13.6943 67.2667 14.8333C67.2667 15.9724 66.9642 17.091 66.3903 18.0749C65.8164 19.0588 64.9915 19.8727 64 20.4333L23.4 43.3C22.5673 43.775 21.6253 44.0247 20.6667 44.0247C19.7081 44.0247 18.766 43.775 17.9333 43.3L4 35.4333C3.0085 34.8727 2.18363 34.0588 1.60969 33.0749C1.03576 32.091 0.733337 30.9724 0.733337 29.8333C0.733337 28.6943 1.03576 27.5756 1.60969 26.5918C2.18363 25.6079 3.0085 24.794 4 24.2333L44.5667 1.36666Z" stroke="#F9F9F9" stroke-linecap="round" stroke-linejoin="round"/>
<path d="M60.6667 37.3333V50.2333C60.668 51.4915 60.3235 52.7258 59.6711 53.8016C59.0186 54.8773 58.083 55.7531 56.9666 56.3333L36.9666 66.6C36.0503 67.0762 35.0327 67.3248 34 67.3248C32.9672 67.3248 31.9497 67.0762 31.0333 66.6L11.0333 56.3333C9.91693 55.7531 8.98141 54.8773 8.32891 53.8016C7.67641 52.7258 7.33201 51.4915 7.33332 50.2333V37.3333" stroke="#F9F9F9" stroke-linecap="round" stroke-linejoin="round"/>
<path d="M64 35.4333C64.9915 34.8727 65.8164 34.0588 66.3903 33.0749C66.9642 32.091 67.2667 30.9724 67.2667 29.8333C67.2667 28.6943 66.9642 27.5757 66.3903 26.5918C65.8164 25.6079 64.9915 24.794 64 24.2333L23.4333 1.33335C22.6063 0.859711 21.6698 0.610535 20.7167 0.610535C19.7636 0.610535 18.8271 0.859711 18 1.33335L4 9.23335C3.0085 9.79402 2.18363 10.6079 1.60969 11.5918C1.03576 12.5757 0.733337 13.6943 0.733337 14.8333C0.733337 15.9724 1.03576 17.091 1.60969 18.0749C2.18363 19.0588 3.0085 19.8727 4 20.4333L44.6 43.3C45.4266 43.7749 46.3633 44.0249 47.3167 44.0249C48.27 44.0249 49.2067 43.7749 50.0333 43.3L64 35.4333Z" stroke="#F9F9F9" stroke-linecap="round" stroke-linejoin="round"/>
<defs>
<clipPath id="clip0_29_4">
<rect width="24" height="24" fill="white" transform="translate(22 9)"/>
</clipPath>
</defs>
</svg>
